<svg width="25" height="25" viewBox="0 0 25 25" fill="none" xmlns="http://www.w3.org/2000/svg">
<g id="ph:trash-light">
<path id="Vector" d="M21.0938 4.88281H16.9922V3.90625C16.9922 3.33645 16.7658 2.78999 16.3629 2.38708C15.96 1.98417 15.4136 1.75781 14.8438 1.75781H10.1562C9.58645 1.75781 9.03999 1.98417 8.63707 2.38708C8.23417 2.78999 8.00781 3.33645 8.00781 3.90625V4.88281H3.90625C3.75085 4.88281 3.60181 4.94455 3.49193 5.05443C3.38204 5.16431 3.32031 5.31335 3.32031 5.46875C3.32031 5.62415 3.38204 5.77319 3.49193 5.88307C3.60181 5.99296 3.75085 6.05469 3.90625 6.05469H4.88281V20.3125C4.88281 20.6751 5.02686 21.0229 5.28325 21.2792C5.53965 21.5356 5.8874 21.6797 6.25 21.6797H18.75C19.1126 21.6797 19.4604 21.5356 19.7167 21.2792C19.9731 21.0229 20.1172 20.6751 20.1172 20.3125V6.05469H21.0938C21.2492 6.05469 21.3982 5.99296 21.5081 5.88307C21.618 5.77319 21.6797 5.62415 21.6797 5.46875C21.6797 5.31335 21.618 5.16431 21.5081 5.05443C21.3982 4.94455 21.2492 4.88281 21.0938 4.88281ZM9.17969 3.90625C9.17969 3.64725 9.28258 3.39886 9.46572 3.21572C9.64886 3.03258 9.89725 2.92969 10.1562 2.92969H14.8438C15.1028 2.92969 15.3511 3.03258 15.5343 3.21572C15.7174 3.39886 15.8203 3.64725 15.8203 3.90625V4.88281H9.17969V3.90625ZM18.9453 20.3125C18.9453 20.3643 18.9247 20.414 18.8881 20.4506C18.8515 20.4872 18.8018 20.5078 18.75 20.5078H6.25C6.1982 20.5078 6.14852 20.4872 6.11189 20.4506C6.07526 20.414 6.05469 20.3643 6.05469 20.3125V6.05469H18.9453V20.3125ZM10.7422 10.1562V16.4062C10.7422 16.5617 10.6805 16.7107 10.5706 16.8206C10.4607 16.9305 10.3117 16.9922 10.1562 16.9922C10.0008 16.9922 9.85181 16.9305 9.74193 16.8206C9.63205 16.7107 9.57031 16.5617 9.57031 16.4062V10.1562C9.57031 10.0008 9.63205 9.85181 9.74193 9.74193C9.85181 9.63205 10.0008 9.57031 10.1562 9.57031C10.3117 9.57031 10.4607 9.63205 10.5706 9.74193C10.6805 9.85181 10.7422 10.0008 10.7422 10.1562ZM15.4297 10.1562V16.4062C15.4297 16.5617 15.368 16.7107 15.2581 16.8206C15.1482 16.9305 14.9992 16.9922 14.8438 16.9922C14.6883 16.9922 14.5393 16.9305 14.4294 16.8206C14.3195 16.7107 14.2578 16.5617 14.2578 16.4062V10.1562C14.2578 10.0008 14.3195 9.85181 14.4294 9.74193C14.5393 9.63205 14.6883 9.57031 14.8438 9.57031C14.9992 9.57031 15.1482 9.63205 15.2581 9.74193C15.368 9.85181 15.4297 10.0008 15.4297 10.1562Z" fill="black"/>
</g>
</svg>
